{"title":"Child.44.2015.WEBRip.XViD.AC3-Sorrow","uid":12148263,"size":1541704175,"categoryP":"video","categoryS":"movies","magnet":"?xt=urn:btih:d78a491672406ccf1f064178c26ceddac2da8dc2&amp;dn=Child.44.2015.WEBRip.XViD.AC3-Sorrow&amp;tr=udp%3A%2F%2Ftracker.openbittorrent.com%3A80&amp;tr=udp%3A%2F%2Fopen.demonii.com%3A1337&amp;tr=udp%3A%2F%2Ftracker.coppersurfer.tk%3A6969&amp;tr=udp%3A%2F%2Fexodus.desync.com%3A6969","seeders":1,"leechers":0,"uploader":null,"files":3,"time":1437524596,"description":"Child 44 2015 WEBRip XViD AC3-Sorrow\n\nGeneral\nComplete name                            : Child.44.2015.WEBRip.XViD.AC3-Sorrow.avi\nFormat                                   : AVI\nFormat/Info                              : Audio Video Interleave\nFile size                                : 1.41 GiB\nDuration                                 : 2h 17mn\nOverall bit rate                         : 1 469 Kbps\nWriting application                      : Lavf55.19.104\nWriting library                          : \n\nVideo\nID                                       : 0\nFormat                                   : MPEG-4 Visual\nFormat profile                           : Simple@L3\nFormat settings, BVOP                    : No\nFormat settings, QPel                    : No\nFormat settings, GMC                     : No warppoints\nFormat settings, Matrix                  : Default (H.263)\nCodec ID                                 : XVID\nCodec ID/Hint                            : XviD\nDuration                                 : 2h 17mn\nBit rate                                 : 1 010 Kbps\nWidth                                    : 720 pixels\nHeight                                   : 304 pixels\nDisplay aspect ratio                     : 2.40:1\nFrame rate                               : 23.976 fps\nColor space                              : YUV\nChroma subsampling                       : 4:2:0\nBit depth                                : 8 bits\nScan type                                : Progressive\nCompression mode                         : Lossy\nBits/(Pixel*Frame)                       : 0.193\nStream size                              : 991 MiB (69%)\nWriting library                          : XviD 64\n\nAudio\nID                                       : 1\nFormat                                   : AC-3\nFormat/Info                              : Audio Coding 3\nMode extension                           : CM (complete main)\nFormat settings, Endianness              : Big\nCodec ID                                 : 2000\nDuration                                 : 2h 17mn\nBit rate mode                            : Constant\nBit rate                                 : 448 Kbps\nChannel count                            : 2 channels\nChannel positions                        : Front: L R\nSampling rate                            : 48.0 KHz\nBit depth                                : 16 bits\nCompression mode                         : Lossy\nStream size                              : 440 MiB (30%)\nAlignment                                : Aligned on interleaves\nInterleave, duration                     : 32 ms (0.77 video frame)\nInterleave, preload duration             : 512 ms\n\n\n\n\nSource:Child.44.2015.1080p.WEB-DL.DD5.1.H264-RARBG\n\nSample:Included\n\nDrama:Thriller\n\nA disgraced member of the military police investigates a series of nasty child murders during the Stalin-era Soviet Union.\n\n\nDirector: Daniel Espinosa \n\nWriters: Richard Price (screenplay), Tom Rob Smith (novel) \n\nStars: Tom Hardy, Gary Oldman, Noomi Rapace \n\n &lt;a href=&quot;\nhttp://www.imdb.com/title/tt1014763/&quot; rel=&quot;nofollow&quot; target=&quot;_NEW&quot;&gt;\nhttp://www.imdb.com/title/tt1014763/&lt;/a&gt;","torrent":{"xt":"urn:btih:d78a491672406ccf1f064178c26ceddac2da8dc2","amp;dn":"Child.44.2015.WEBRip.XViD.AC3-Sorrow","amp;tr":["udp%3A%2F%2Ftracker.openbittorrent.com%3A80","udp%3A%2F%2Fopen.demonii.com%3A1337","udp%3A%2F%2Ftracker.coppersurfer.tk%3A6969","udp%3A%2F%2Fexodus.desync.com%3A6969"],"infoHash":"d78a491672406ccf1f064178c26ceddac2da8dc2","infoHashBuffer":{"type":"Buffer","data":[215,138,73,22,114,64,108,207,31,6,65,120,194,108,237,218,194,218,141,194]},"announce":[],"urlList":[]}}